<svg width="40" height="40" viewBox="0 0 40 40" fill="none" xmlns="http://www.w3.org/2000/svg">
<path d="M9.48481 24.9294C8.81347 24.9294 8.15719 25.1285 7.59895 25.5014C7.04071 25.8743 6.60557 26.4044 6.34853 27.0246C6.09149 27.6447 6.0241 28.3272 6.15488 28.9857C6.28566 29.6442 6.60873 30.2491 7.08325 30.724C7.55777 31.1989 8.16244 31.5225 8.82083 31.6538C9.47921 31.7851 10.1617 31.7182 10.7821 31.4617C11.4025 31.2052 11.9329 30.7704 12.3063 30.2125C12.6797 29.6546 12.8792 28.9984 12.8798 28.3271C12.8791 27.4267 12.5212 26.5633 11.8848 25.9263C11.2483 25.2894 10.3852 24.9308 9.48481 24.9294Z" fill="white"/>
<path d="M30.5082 24.9294C29.8369 24.9294 29.1806 25.1285 28.6224 25.5014C28.0641 25.8743 27.629 26.4044 27.372 27.0246C27.1149 27.6447 27.0475 28.3272 27.1783 28.9857C27.3091 29.6442 27.6322 30.2491 28.1067 30.724C28.5812 31.1989 29.1859 31.5225 29.8443 31.6538C30.5026 31.7851 31.1852 31.7182 31.8056 31.4617C32.426 31.2052 32.9564 30.7704 33.3297 30.2125C33.7031 29.6546 33.9027 28.9984 33.9032 28.3271C33.9025 27.4267 33.5447 26.5633 32.9082 25.9263C32.2718 25.2894 31.4087 24.9308 30.5082 24.9294Z" fill="white"/>
<path d="M19.9935 8.28C19.3225 8.28215 18.6672 8.48308 18.1103 8.85742C17.5534 9.23177 17.12 9.76274 16.8647 10.3833C16.6094 11.0038 16.5437 11.6861 16.6759 12.3439C16.8082 13.0018 17.1323 13.6057 17.6076 14.0794C18.0828 14.5531 18.6877 14.8754 19.346 15.0055C20.0043 15.1356 20.6863 15.0677 21.306 14.8105C21.9258 14.5532 22.4553 14.118 22.8279 13.56C23.2005 13.0019 23.3993 12.346 23.3993 11.675C23.3986 11.2284 23.3099 10.7864 23.1384 10.3741C22.9669 9.96183 22.7158 9.58737 22.3995 9.27212C22.0833 8.95687 21.708 8.70699 21.2952 8.53677C20.8824 8.36654 20.44 8.27929 19.9935 8.28Z" fill="white"/>
<path d="M19.9146 16.7565C12.5145 16.7565 5.60528 18.8119 1.4375 22.2503L4.23862 25.6452C7.59291 22.8766 13.6019 21.1575 19.9146 21.1575C26.3249 21.1575 32.3881 22.9146 35.7126 25.7456L38.5598 22.3885C34.4001 18.8634 27.4312 16.7565 19.9146 16.7565Z" fill="white"/>
</svg>
